<svg xmlns="http://www.w3.org/2000/svg" viewBox="0 0 48 48"><g><circle cx="24" cy="24" r="24" fill="#23272F"/><path d="M24 10c-4.5 0-8.5 3.7-8.5 8.3 0 3.7 2.4 6.8 5.7 7.9.4.1.5-.2.5-.4v-1.5c-2.3.5-2.8-1.1-2.8-1.1-.4-.9-1-1.1-1-1.1-.8-.5.1-.5.1-.5.9.1 1.4.9 1.4.9.8 1.3 2.1.9 2.6.7.1-.6.3-.9.5-1.1-1.8-.2-3.7-.9-3.7-4 0-.9.3-1.6.8-2.2-.1-.2-.3-1 .1-2.1 0 0 .7-.2 2.2.8.7-.2 1.4-.3 2.1-.3.7 0 1.4.1 2.1.3 1.5-1 2.2-.8 2.2-.8.4 1.1.2 1.9.1 2.1.5.6.8 1.3.8 2.2 0 3.1-1.9 3.8-3.7 4 .3.2.6.7.6 1.5v2.2c0 .2.1.5.5.4 3.3-1.1 5.7-4.2 5.7-7.9C32.5 13.7 28.5 10 24 10z" fill="#fff"/><circle cx="24" cy="36" r="2" fill="#10B981"/></g></svg>